<svg width="412" height="463" viewBox="0 0 412 463" fill="none" xmlns="http://www.w3.org/2000/svg">
<path d="M395.576 462.111H55.119C50.7675 462.105 46.596 460.372 43.519 457.292C40.442 454.211 38.7106 450.036 38.7042 445.68V155.594L1.64392 168.88C1.39484 168.971 1.12259 168.978 0.869195 168.9C0.615798 168.821 0.395327 168.661 0.241765 168.444C0.0848422 168.235 0 167.98 0 167.718C0 167.457 0.0848422 167.202 0.241765 166.992L38.6558 119.875V16.42C38.6622 12.0662 40.3945 7.89292 43.4722 4.81659C46.5499 1.74026 50.7214 0.0123854 55.0706 0.0123901H395.576C399.925 0.0123854 404.096 1.74026 407.174 4.81659C410.252 7.89292 411.984 12.0662 411.99 16.42V445.68C411.984 450.036 410.252 454.211 407.175 457.292C404.099 460.372 399.927 462.105 395.576 462.111ZM39.9129 152.69C40.163 152.691 40.4072 152.767 40.614 152.908C40.7734 153.019 40.9031 153.168 40.9916 153.341C41.0801 153.514 41.1248 153.706 41.1217 153.9V445.68C41.1281 449.394 42.6048 452.954 45.2285 455.58C47.8521 458.207 51.4086 459.685 55.119 459.691H395.576C399.286 459.685 402.842 458.207 405.466 455.58C408.09 452.954 409.566 449.394 409.573 445.68V16.42C409.566 12.708 408.089 9.15028 405.465 6.52779C402.84 3.9053 399.284 2.43238 395.576 2.43239H55.119C51.4109 2.43238 47.8542 3.9053 45.2299 6.52779C42.6056 9.15028 41.1281 12.708 41.1217 16.42V120.214C41.1182 120.486 41.0248 120.75 40.8558 120.964L4.90752 165.056L39.5019 152.763C39.6338 152.715 39.7728 152.691 39.9129 152.69Z" fill="#3C4242"/>
<path d="M225.248 204.962C212.859 204.962 200.749 201.285 190.448 194.395C180.148 187.505 172.119 177.712 167.378 166.255C162.637 154.798 161.397 142.19 163.814 130.027C166.231 117.864 172.196 106.692 180.956 97.9229C189.716 89.1538 200.877 83.182 213.028 80.7626C225.178 78.3432 237.773 79.5849 249.218 84.3307C260.664 89.0765 270.446 97.1132 277.329 107.425C284.212 117.736 287.885 129.859 287.885 142.26C287.866 158.884 281.261 174.821 269.518 186.576C257.775 198.331 241.854 204.943 225.248 204.962ZM225.248 82.002C213.336 82.002 201.693 85.5381 191.789 92.1631C181.885 98.788 174.167 108.204 169.61 119.221C165.052 130.237 163.861 142.359 166.187 154.054C168.512 165.748 174.25 176.489 182.674 184.919C191.099 193.348 201.831 199.088 213.514 201.411C225.197 203.734 237.306 202.537 248.31 197.971C259.313 193.404 268.716 185.674 275.331 175.758C281.945 165.841 285.473 154.184 285.468 142.26C285.442 126.282 279.089 110.967 267.8 99.6709C256.511 88.3752 241.209 82.0212 225.248 82.002Z" fill="#D1D3D4"/>
<path d="M269.247 126.457C268.818 127.15 268.333 127.806 267.796 128.418L216.255 179.939C215.99 180.339 215.631 180.666 215.209 180.893C214.788 181.12 214.316 181.238 213.838 181.238C213.359 181.238 212.888 181.12 212.466 180.893C212.044 180.666 211.685 180.339 211.42 179.939C201.75 169.969 192.08 159.982 182.41 149.98C182.045 149.706 181.752 149.347 181.555 148.935C181.359 148.523 181.265 148.069 181.282 147.612C181.298 147.156 181.425 146.71 181.651 146.313C181.877 145.917 182.195 145.58 182.579 145.333L189.832 138.775C190.092 138.448 190.423 138.183 190.8 138.001C191.177 137.819 191.589 137.725 192.008 137.725C192.426 137.725 192.839 137.819 193.215 138.001C193.592 138.183 193.923 138.448 194.183 138.775L211.323 156.248C213.112 158.063 214.442 158.087 216.158 156.248L256.192 116.342C256.453 115.937 256.811 115.605 257.233 115.374C257.655 115.144 258.129 115.023 258.61 115.023C259.091 115.023 259.564 115.144 259.986 115.374C260.409 115.605 260.766 115.937 261.027 116.342C263.3 118.617 265.572 120.891 267.796 123.19C268.31 123.793 268.778 124.432 269.198 125.102L269.247 126.457Z" fill="#8A33FD"/>
<path d="M153.98 106.928C153.73 106.927 153.486 106.851 153.279 106.71L126.686 88.3182C126.428 88.129 126.253 87.8463 126.198 87.5301C126.144 87.2138 126.215 86.8889 126.396 86.6242C126.486 86.4941 126.6 86.3832 126.733 86.298C126.866 86.2128 127.014 86.155 127.169 86.1279C127.325 86.1009 127.484 86.1052 127.638 86.1405C127.791 86.1759 127.936 86.2416 128.064 86.3338L154.657 104.726C154.789 104.813 154.902 104.926 154.989 105.058C155.077 105.19 155.137 105.339 155.166 105.494C155.195 105.65 155.193 105.81 155.16 105.965C155.126 106.119 155.062 106.266 154.971 106.396C154.861 106.558 154.714 106.692 154.541 106.784C154.369 106.877 154.176 106.926 153.98 106.928Z" fill="#D1D3D4"/>
<path d="M127.436 198.428C127.241 198.433 127.049 198.39 126.875 198.301C126.702 198.212 126.554 198.081 126.445 197.92C126.264 197.655 126.193 197.33 126.247 197.014C126.301 196.698 126.476 196.415 126.735 196.226L153.327 177.834C153.459 177.742 153.607 177.678 153.763 177.644C153.92 177.61 154.082 177.608 154.239 177.637C154.397 177.666 154.547 177.727 154.681 177.814C154.815 177.902 154.93 178.016 155.02 178.149C155.11 178.278 155.175 178.425 155.208 178.579C155.242 178.734 155.244 178.894 155.214 179.05C155.185 179.206 155.125 179.354 155.037 179.486C154.95 179.618 154.837 179.731 154.705 179.818L128.113 198.21C127.916 198.354 127.679 198.43 127.436 198.428Z" fill="#D1D3D4"/>
<path d="M151.2 143.47H127.484C127.164 143.47 126.856 143.343 126.629 143.116C126.403 142.889 126.275 142.581 126.275 142.26C126.275 141.939 126.403 141.631 126.629 141.404C126.856 141.177 127.164 141.05 127.484 141.05H151.2C151.52 141.05 151.828 141.177 152.055 141.404C152.281 141.631 152.409 141.939 152.409 142.26C152.409 142.581 152.281 142.889 152.055 143.116C151.828 143.343 151.52 143.47 151.2 143.47Z" fill="#D1D3D4"/>
<path d="M298.957 106.928C298.762 106.926 298.569 106.877 298.396 106.784C298.224 106.692 298.076 106.558 297.966 106.396C297.875 106.266 297.811 106.119 297.778 105.965C297.744 105.81 297.742 105.65 297.771 105.494C297.801 105.339 297.861 105.19 297.948 105.058C298.036 104.926 298.149 104.813 298.281 104.726L324.873 86.3338C325.001 86.2416 325.146 86.1759 325.3 86.1405C325.454 86.1052 325.613 86.1009 325.768 86.1279C325.923 86.155 326.072 86.2128 326.205 86.298C326.337 86.3832 326.452 86.4941 326.541 86.6242C326.634 86.7543 326.7 86.9014 326.736 87.0572C326.771 87.2129 326.776 87.3742 326.749 87.5317C326.722 87.6892 326.664 87.8398 326.578 87.9748C326.493 88.1098 326.382 88.2265 326.251 88.3182L299.659 106.71C299.452 106.851 299.208 106.927 298.957 106.928Z" fill="#D1D3D4"/>
<path d="M325.502 198.428C325.259 198.427 325.023 198.351 324.825 198.21L298.232 179.818C298.1 179.731 297.987 179.618 297.9 179.486C297.813 179.354 297.752 179.206 297.723 179.05C297.694 178.894 297.696 178.734 297.729 178.579C297.763 178.425 297.827 178.278 297.918 178.149C298.008 178.016 298.123 177.902 298.257 177.814C298.391 177.727 298.541 177.666 298.698 177.637C298.856 177.608 299.017 177.61 299.174 177.644C299.331 177.678 299.479 177.742 299.61 177.834L326.203 196.226C326.333 196.318 326.445 196.434 326.53 196.569C326.616 196.704 326.673 196.855 326.7 197.012C326.727 197.17 326.723 197.331 326.687 197.487C326.652 197.643 326.586 197.79 326.493 197.92C326.383 198.081 326.235 198.212 326.062 198.301C325.889 198.39 325.696 198.433 325.502 198.428Z" fill="#D1D3D4"/>
<path d="M325.502 143.47H301.786C301.465 143.47 301.158 143.343 300.931 143.116C300.704 142.889 300.577 142.581 300.577 142.26C300.577 141.939 300.704 141.631 300.931 141.404C301.158 141.177 301.465 141.05 301.786 141.05H325.502C325.822 141.05 326.13 141.177 326.356 141.404C326.583 141.631 326.71 141.939 326.71 142.26C326.71 142.581 326.583 142.889 326.356 143.116C326.13 143.343 325.822 143.47 325.502 143.47Z" fill="#D1D3D4"/>
</svg>
