<?xml version="1.0"?>
<svg width="40" height="40" xmlns="http://www.w3.org/2000/svg" xmlns:svg="http://www.w3.org/2000/svg" enable-background="new 0 0 40 40" version="1.1" xml:space="preserve">
 <g class="layer">
  <title>Layer 1</title>
  <g id="svg_1">
   <rect fill="#fff" height="13.39" id="svg_2" transform="matrix(0.6949 -0.7191 0.7191 0.6949 -0.2483 23.9611)" width="13.67" x="21.28" y="5.58"/>
   <rect fill="#BEBCBD" height="13.39" id="svg_3" transform="matrix(0.6949 -0.7191 0.7191 0.6949 -0.2483 23.9611)" width="2.7" x="31.9" y="5.58"/>
   <g id="svg_4">
    <path d="m28.06,3.41l8.91,8.61l-8.8,9.11l-8.91,-8.61l8.8,-9.11m-0.02,-1.41l-10.2,10.55l10.35,10l10.19,-10.55l-10.34,-10l0,0z" fill="#3C4242" id="svg_5"/>
   </g>
  </g>
  <g id="svg_6">
   <rect fill="#fff" height="15.87" id="svg_7" transform="matrix(0.6949 -0.7191 0.7191 0.6949 -1.7785 18.6947)" width="8.96" x="16.66" y="3.51"/>
   <rect fill="#BEBCBD" height="13.39" id="svg_8" transform="matrix(0.6949 -0.7191 0.7191 0.6949 -0.2483 23.9611)" width="2.7" x="25.66" y="-1.51"/>
   <g id="svg_9">
    <path d="m18.56,3.41l10.7,10.34l-5.54,5.72l-10.69,-10.33l5.53,-5.73m-0.02,-1.41l-6.92,7.16l12.13,11.73l6.92,-7.17l-12.13,-11.72l0,0z" fill="#3C4242" id="svg_10"/>
   </g>
  </g>
  <g id="svg_11">
   <path d="m12.91,25.5l-3.06,-17.67l28.52,3.85l-3.47,12.71c-0.18,0.66 -0.77,1.11 -1.45,1.11l-20.54,0z" fill="#fff" id="svg_12"/>
   <path d="m10.45,8.42l27.28,3.68l-3.31,12.16c-0.12,0.44 -0.52,0.74 -0.97,0.74l-20.12,0l-2.88,-16.58m-1.22,-1.18l3.26,18.76l20.96,0c0.91,0 1.7,-0.6 1.93,-1.47l3.62,-13.27l-29.77,-4.02l0,0z" fill="#3C4242" id="svg_13"/>
  </g>
  <path d="m3,1.5l2.12,0c2.09,0 3.88,1.5 4.24,3.57l4.5,25.86c0.36,2.06 2.15,3.57 4.24,3.57l16.9,0" fill="none" id="svg_14" stroke="#3C4242" stroke-miterlimit="10"/>
  <g id="svg_15">
   <circle cx="3" cy="3" fill="#8A33FD" id="svg_16" r="1.5"/>
   <path d="m3,2c0.55,0 1,0.45 1,1s-0.45,1 -1,1s-1,-0.45 -1,-1s0.45,-1 1,-1m0,-1c-1.1,0 -2,0.9 -2,2s0.9,2 2,2s2,-0.89 2,-2s-0.89,-2 -2,-2l0,0z" fill="#3C4242" id="svg_17"/>
  </g>
  <g id="svg_18">
   <circle cx="31.5" cy="36.5" fill="#BEBCBD" id="svg_19" r="2"/>
   <path d="m31.5,35c0.83,0 1.5,0.67 1.5,1.5s-0.67,1.5 -1.5,1.5s-1.5,-0.67 -1.5,-1.5s0.67,-1.5 1.5,-1.5m0,-1c-1.38,0 -2.5,1.12 -2.5,2.5s1.12,2.5 2.5,2.5s2.5,-1.12 2.5,-2.5s-1.12,-2.5 -2.5,-2.5l0,0z" fill="#3C4242" id="svg_20"/>
  </g>
  <g id="svg_21">
   <circle cx="18.5" cy="36.5" fill="#BEBCBD" id="svg_22" r="2"/>
   <path d="m18.5,35c0.83,0 1.5,0.67 1.5,1.5s-0.67,1.5 -1.5,1.5s-1.5,-0.67 -1.5,-1.5s0.67,-1.5 1.5,-1.5m0,-1c-1.38,0 -2.5,1.12 -2.5,2.5s1.12,2.5 2.5,2.5s2.5,-1.12 2.5,-2.5s-1.12,-2.5 -2.5,-2.5l0,0z" fill="#3C4242" id="svg_23"/>
  </g>
  <line fill="#BAE0BD" id="svg_24" stroke="#8A33FD" stroke-miterlimit="10" x1="18.5" x2="18.5" y1="22" y2="14"/>
  <line fill="#BAE0BD" id="svg_25" stroke="#8A33FD" stroke-miterlimit="10" x1="22.5" x2="22.5" y1="22" y2="14"/>
  <line fill="#BAE0BD" id="svg_26" stroke="#8A33FD" stroke-miterlimit="10" x1="26.5" x2="26.5" y1="22" y2="14"/>
  <line fill="#BAE0BD" id="svg_27" stroke="#8A33FD" stroke-miterlimit="10" x1="30.5" x2="30.5" y1="22" y2="14"/>
  <path d="m34.44,24.05c0,0 0.23,0.47 -0.47,0.89c-0.7,0.41 -0.58,0.12 -0.88,0.12c-0.29,0 -19.77,0 -19.82,-0.03c-0.06,-0.03 -2.87,-16.64 -2.87,-16.67c0,-0.03 1.4,0.27 1.35,0.24c-0.06,-0.03 2.69,15.34 2.63,15.31c-0.06,-0.03 20.06,0.15 20.06,0.15z" fill="#8a33fd" id="svg_38" stroke="#000000" stroke-opacity="0" transform="rotate(0.0626641 22.4455 16.7601)"/>
 </g>
</svg>