<?xml version="1.0"?>
<svg width="188" height="175" xmlns="http://www.w3.org/2000/svg" xmlns:svg="http://www.w3.org/2000/svg">
 <g class="layer">
  <title>Layer 1</title>
  <path d="m161.81,171.4c-1.13,0 -2.18,-0.71 -2.57,-1.82l-19.66,-55.17l-115.35,8.41c-0.06,0 -0.14,0.01 -0.2,0.01c-5.39,0 -9.78,-4.33 -9.88,-9.71l-11.78,-100.18c-0.01,-0.1 -0.03,-0.22 -0.03,-0.33c0,-5.45 4.44,-9.88 9.89,-9.88c0.06,0 0.11,0 0.17,0l162.6,10.32c5.4,0.05 9.78,4.45 9.78,9.87l0,79.02c0,5.41 -4.37,9.82 -9.77,9.87l-10.47,0.76l0,56.07c0,1.34 -0.96,2.47 -2.27,2.69c-0.15,0.05 -0.3,0.07 -0.46,0.07z" fill="#F6F6F6" id="svg_1"/>
  <path d="m12.61,5.47l162.68,10.33c3.95,0 7.15,3.2 7.15,7.14l0,79.02c0,3.95 -3.2,7.15 -7.15,7.15l-13.1,0.96l0,58.61l-20.35,-57.13l-117.43,8.55c-3.94,0 -7.14,-3.2 -7.14,-7.14l-11.79,-100.34c-0.01,-3.96 3.19,-7.15 7.13,-7.15zm0,-5.47c-6.96,0 -12.61,5.66 -12.61,12.62c0,0.22 0.01,0.43 0.04,0.64l11.76,100.05c0.2,6.78 5.78,12.25 12.61,12.25c0.14,0 0.27,0 0.4,-0.02l113.27,-8.25l18.96,53.21c0.78,2.2 2.86,3.63 5.14,3.63c0.31,0 0.63,-0.02 0.94,-0.07c2.61,-0.45 4.53,-2.73 4.53,-5.39l0,-53.53l7.85,-0.58c6.85,-0.12 12.39,-5.73 12.39,-12.61l0,-79.02c0,-6.88 -5.55,-12.5 -12.41,-12.61l-162.52,-10.31c-0.11,-0.01 -0.22,-0.01 -0.35,-0.01z" fill="#3C4242" id="svg_2"/>
  <path d="m41.53,16.83l-19.58,-1.25c-3.5,0 -6.33,2.84 -6.33,6.32l5.74,48.84" fill="#000000" fill-opacity="0" id="svg_3" stroke="#3C4242" stroke-linecap="round" stroke-linejoin="round" stroke-miterlimit="10" stroke-width="5.47" transform="matrix(1 0 0 1 0 0)"/>
  <path d="m175.29,15.79l-11.32,-0.73l0,70.81c0,3.94 -3.19,7.14 -7.14,7.14l-9,0.66l-0.8,0.06l-3.31,0.24l-127.61,9.3l1.15,9.67c0,3.95 3.19,7.15 7.14,7.15l117.43,-8.55l1.9,5.33l18.46,51.8l0,-58.61l13.1,-0.96c3.95,0 7.15,-3.2 7.15,-7.15l0,-79.02c0,-3.94 -3.2,-7.14 -7.15,-7.14z" fill="#8A33FD" id="svg_4"/>
  <path d="m175.29,15.79l-3.27,-0.22l0,78.94c0,3.94 -3.2,7.14 -7.15,7.14l-13.09,0.96l0,36.81l10.41,29.25l0,-58.61l13.1,-0.96c3.95,0 7.15,-3.2 7.15,-7.15l0,-79.02c0,-3.94 -3.2,-7.14 -7.15,-7.14z" fill="#BEBCBD" id="svg_5"/>
  <circle cx="65.72" cy="45.31" fill="#2A2F2F" id="svg_6" r="5.31"/>
  <circle cx="95.28" cy="45.31" fill="#2A2F2F" id="svg_7" r="5.31"/>
  <path d="m50.3,95c0.88,-0.02 1.59,-0.24 2.62,-1.94c0.62,-1.02 1.59,-2.59 2.48,-3.42c0.66,-0.61 2.12,-1.78 2.92,-2.5c0.42,-0.38 1.29,-1.19 2.22,-1.95c0.48,-0.39 2.02,-1.44 2.56,-1.73c1.12,-0.6 1.7,-0.84 2.88,-1.31c0.61,-0.24 1.85,-0.69 2.49,-0.91c1.28,-0.45 1.93,-0.66 2.58,-0.86c0.65,-0.2 1.94,-0.56 3.21,-0.8c0.63,-0.12 1.25,-0.2 2.47,-0.32c0.61,-0.06 1.21,-0.09 2.42,-0.25c1.22,-0.16 1.83,-0.29 3.06,-0.61c0.62,-0.16 1.23,-0.34 1.85,-0.5c1.22,-0.33 2.42,-0.6 3.59,-0.77c0.57,-0.08 1.14,-0.13 2.24,-0.25c0.54,-0.06 2.09,-0.29 3.06,-0.58c0.47,-0.14 1.4,-0.51 2.29,-0.82c1.3,-0.45 1.72,-0.55 2.56,-0.67c0.82,-0.11 1.61,-0.12 3.12,-0.13c0.71,0 1.41,0 2.42,0c1,0 1.67,0 2.67,0c0.67,0 2,0 2.66,0c0.65,0 1.88,0.03 2.74,-0.01c0.8,-0.04 1.8,-0.3 2.73,-0.95c0.64,-0.45 1.76,-1.23 2.54,-1.29c0.89,-0.07 1.84,0 2.83,0l0.84,0" fill="none" id="svg_8" transform="matrix(1 0 0 1 0 0) rotate(-5.15732 85.3175 83.7012)"/>
  <line fill="none" id="svg_9" transform="matrix(1 0 0 1 0 0)" x1="54" x2="115.48" y1="77.22" y2="70.19"/>
  <path d="m67.02,82.91c0,0 2.62,-16.22 19.52,-16.01c16.9,0.21 19.07,14.37 19.07,14.37" fill="none" id="svg_15" stroke="#2a2f2f" stroke-linecap="round" stroke-linejoin="round" stroke-width="4" transform="matrix(1 0 0 1 0 0) rotate(-6.01497 86.3116 74.9048)"/>
 </g>
</svg>